<?xml version="1.0" standalone="no"?>
<!DOCTYPE svg PUBLIC "-//W3C//DTD SVG 20010904//EN"
 "http://www.w3.org/TR/2001/REC-SVG-20010904/DTD/svg10.dtd">
<svg version="1.0" xmlns="http://www.w3.org/2000/svg"
 width="675.000000pt" height="675.000000pt" viewBox="0 0 675.000000 675.000000"
 preserveAspectRatio="xMidYMid meet">
<metadata>
Created by potrace 1.11, written by Peter Selinger 2001-2013
</metadata>
<g transform="translate(0.000000,675.000000) scale(0.100000,-0.100000)"
fill="#000000" stroke="none">
<path d="M4344 4892 c-169 -59 -322 -223 -405 -436 -32 -82 -59 -221 -59 -300
0 -73 34 -296 65 -426 l27 -110 -74 -87 c-131 -155 -363 -397 -484 -505 -138
-124 -292 -248 -307 -248 -16 0 -452 125 -806 231 -233 70 -341 99 -359 94
-38 -9 -122 -97 -122 -126 0 -45 194 -283 404 -496 82 -84 148 -155 145 -157
-2 -2 -61 -29 -131 -59 -266 -118 -526 -193 -788 -227 -119 -16 -144 -26 -184
-71 -41 -45 -49 -94 -17 -104 24 -7 203 19 351 52 284 62 600 174 834 295 l49
25 81 -62 c470 -362 925 -421 1270 -166 77 57 190 181 233 255 26 46 42 65 53
61 103 -32 356 -64 560 -72 344 -12 570 48 718 191 81 78 133 166 113 190 -31
37 -100 5 -157 -74 -88 -123 -323 -166 -679 -125 -115 14 -486 73 -493 79 -1
2 7 47 18 100 55 260 53 492 -7 890 -17 114 -23 183 -17 191 153 214 293 449
358 605 164 388 131 611 -91 610 -26 -1 -71 -9 -99 -18z m50 -174 c39 -17 58
-55 63 -122 12 -138 -78 -371 -250 -651 -30 -48 -77 -111 -77 -102 0 2 -14 71
-32 153 -43 202 -45 350 -5 470 65 197 191 303 301 252z m-363 -1438 c18 -130
23 -213 23 -395 1 -267 -10 -348 -47 -340 -281 63 -749 185 -745 195 2 4 48
45 103 91 127 106 397 370 528 517 55 62 104 109 108 105 4 -5 18 -82 30 -173z
m-1492 -556 c163 -47 306 -89 319 -92 12 -4 23 -11 23 -17 1 -9 -267 -175
-283 -175 -15 0 -174 148 -253 236 -110 123 -119 134 -110 134 5 0 142 -39
304 -86z m651 -180 c166 -47 528 -137 665 -165 61 -12 112 -23 113 -25 10 -7
-68 -133 -110 -179 -167 -183 -503 -193 -841 -24 -70 35 -226 134 -291 184
-24 18 -34 10 147 129 81 54 150 102 153 107 9 15 34 11 164 -27z"/>
</g>
</svg>
