<svg id="svg" version="1.1" width="400" height="400" xmlns="http://www.w3.org/2000/svg" xmlns:xlink="http://www.w3.org/1999/xlink" style="display: block;"><g id="svgg"><path id="path0" d="M0.000 200.000 L 0.000 400.000 200.000 400.000 L 400.000 400.000 400.000 200.000 L 400.000 0.000 200.000 0.000 L 0.000 0.000 0.000 200.000 M313.216 56.256 C 313.557 56.597,290.445 79.947,221.336 149.081 C 170.551 199.884,128.607 241.889,128.128 242.425 C 125.480 245.385,124.948 245.345,121.626 241.943 C 120.072 240.351,118.800 239.007,118.800 238.955 C 118.800 238.770,116.334 236.400,116.141 236.400 C 115.875 236.400,114.800 235.312,114.800 235.043 C 114.800 234.580,111.405 231.600,110.877 231.600 C 110.541 231.600,110.407 231.358,110.545 231.000 C 110.677 230.656,110.553 230.400,110.255 230.400 C 109.969 230.400,109.505 229.970,109.224 229.444 C 108.942 228.918,108.282 228.258,107.756 227.976 C 107.230 227.695,106.800 227.225,106.800 226.932 C 106.800 226.640,106.560 226.400,106.268 226.400 C 105.975 226.400,105.505 225.970,105.224 225.444 C 104.942 224.918,104.282 224.258,103.756 223.976 C 103.230 223.695,102.800 223.329,102.800 223.163 C 102.800 222.832,100.459 220.400,100.141 220.400 C 99.875 220.400,98.800 219.312,98.800 219.043 C 98.800 218.580,95.405 215.600,94.877 215.600 C 94.541 215.600,94.407 215.358,94.545 215.000 C 94.677 214.656,94.553 214.400,94.255 214.400 C 93.969 214.400,93.505 213.970,93.224 213.444 C 92.942 212.918,92.282 212.258,91.756 211.976 C 91.230 211.695,90.800 211.225,90.800 210.932 C 90.800 210.640,90.560 210.400,90.268 210.400 C 89.975 210.400,89.495 209.952,89.203 209.405 C 88.910 208.857,88.178 208.192,87.578 207.926 C 86.951 207.649,86.571 207.220,86.686 206.921 C 86.796 206.635,86.672 206.400,86.412 206.400 C 85.899 206.400,82.800 203.240,82.800 202.718 C 82.800 202.543,82.595 202.400,82.344 202.400 C 81.616 202.400,80.827 201.097,80.813 199.871 C 80.802 198.896,90.629 188.910,152.364 127.166 L 223.928 55.590 268.344 55.695 C 300.931 55.772,312.882 55.921,313.216 56.256 M312.551 189.407 C 312.510 190.415,311.362 191.738,305.610 197.407 C 301.819 201.143,298.511 204.409,298.259 204.664 C 298.006 204.919,295.525 207.439,292.744 210.264 C 289.964 213.089,286.364 216.693,284.744 218.274 C 283.125 219.855,279.525 223.455,276.744 226.274 C 273.964 229.093,270.364 232.693,268.744 234.274 C 267.125 235.855,263.525 239.455,260.744 242.274 C 257.964 245.093,254.364 248.700,252.744 250.289 C 251.125 251.878,248.141 254.848,246.113 256.889 C 244.085 258.930,241.247 261.749,239.807 263.153 C 237.916 264.997,237.301 265.839,237.591 266.189 C 237.812 266.456,237.898 266.769,237.781 266.885 C 237.665 267.002,254.602 284.118,275.419 304.921 C 302.443 331.926,313.229 342.953,313.129 343.473 C 312.825 345.051,222.400 344.690,222.400 343.110 C 222.400 342.666,217.245 337.600,216.793 337.600 C 216.577 337.600,216.400 337.423,216.400 337.207 C 216.400 336.698,201.295 321.600,200.786 321.600 C 200.574 321.600,200.400 321.422,200.400 321.204 C 200.400 320.693,187.297 307.600,186.786 307.600 C 186.574 307.600,186.400 307.422,186.400 307.203 C 186.400 306.985,177.521 297.933,166.668 287.086 C 155.508 275.932,146.827 266.945,146.683 266.397 C 146.419 265.386,148.451 263.144,159.130 252.661 C 161.182 250.648,164.782 247.033,167.130 244.630 C 169.479 242.226,173.080 238.626,175.134 236.630 C 177.188 234.633,181.058 230.755,183.734 228.011 C 186.410 225.268,189.384 222.298,190.342 221.411 C 191.300 220.525,199.240 212.644,207.988 203.898 L 223.892 187.996 268.246 188.098 L 312.600 188.200 312.551 189.407 " stroke="none" fill="#ffffff" fill-rule="evenodd"></path><path id="path1" d="M220.900 282.260 C 220.625 282.374,220.400 282.732,220.400 283.057 C 220.400 283.382,220.238 283.547,220.041 283.425 C 219.843 283.303,217.822 285.042,215.549 287.289 C 213.277 289.536,210.244 292.392,208.809 293.636 C 207.374 294.879,203.410 298.731,200.000 302.194 C 196.590 305.657,193.485 308.781,193.100 309.134 C 192.336 309.836,192.163 310.800,192.800 310.800 C 193.020 310.800,193.200 310.620,193.200 310.400 C 193.200 310.180,193.549 310.000,193.976 310.000 C 194.403 310.000,194.864 309.820,195.000 309.600 C 195.136 309.380,195.777 309.200,196.424 309.200 C 197.071 309.200,197.600 309.046,197.600 308.857 C 197.600 308.669,199.175 307.930,201.100 307.217 C 213.878 302.479,214.300 302.264,214.300 300.499 C 214.300 299.854,214.637 299.208,215.150 298.867 C 215.618 298.556,216.000 298.074,216.000 297.794 C 216.000 297.514,216.270 297.182,216.600 297.055 C 217.415 296.743,217.355 296.317,216.345 295.233 C 215.689 294.529,215.610 294.241,216.003 293.998 C 216.286 293.824,216.406 293.393,216.272 293.042 C 215.883 292.031,217.404 288.994,218.794 288.004 C 219.803 287.286,220.013 286.906,219.821 286.142 C 219.424 284.559,220.262 283.472,221.664 283.753 C 222.723 283.965,222.840 283.892,222.727 283.100 C 222.601 282.212,221.851 281.868,220.900 282.260 " stroke="none" fill="#003259" fill-rule="evenodd"></path><path id="path2" d="M224.700 277.089 C 218.925 282.815,211.682 289.953,208.604 292.950 C 205.527 295.948,203.156 298.400,203.336 298.400 C 203.744 298.400,209.486 293.161,215.281 287.502 C 217.701 285.137,219.843 283.303,220.041 283.425 C 220.238 283.547,220.400 283.379,220.400 283.051 C 220.400 282.389,221.764 281.807,222.396 282.198 C 223.396 282.816,222.823 283.985,221.637 283.747 C 220.263 283.473,219.428 284.574,219.821 286.142 C 220.013 286.906,219.803 287.286,218.794 288.004 C 217.404 288.994,215.883 292.031,216.272 293.042 C 216.406 293.393,216.286 293.824,216.003 293.998 C 215.610 294.241,215.689 294.529,216.345 295.233 C 217.355 296.317,217.415 296.743,216.600 297.055 C 216.270 297.182,216.000 297.514,216.000 297.794 C 216.000 298.074,215.618 298.556,215.150 298.867 C 214.637 299.208,214.300 299.854,214.300 300.499 C 214.300 302.264,213.878 302.479,201.100 307.217 C 199.175 307.930,197.600 308.669,197.600 308.857 C 197.600 309.046,197.071 309.200,196.424 309.200 C 195.777 309.200,195.136 309.380,195.000 309.600 C 194.864 309.820,194.403 310.000,193.976 310.000 C 193.549 310.000,193.200 310.180,193.200 310.400 C 193.200 310.620,193.020 310.800,192.800 310.800 C 192.162 310.800,192.336 309.836,193.100 309.138 C 195.434 307.003,203.271 298.800,202.977 298.800 C 202.424 298.800,192.000 309.527,192.000 310.097 C 192.000 310.376,199.246 317.848,208.102 326.702 L 224.204 342.800 267.502 342.800 C 291.316 342.800,310.800 342.667,310.800 342.505 C 310.800 341.728,237.030 268.487,236.436 268.675 C 235.966 268.823,235.933 268.779,236.309 268.508 C 236.705 268.223,236.638 267.977,236.010 267.409 C 235.212 266.687,235.054 266.822,224.700 277.089 " stroke="none" fill="#00579c" fill-rule="evenodd"></path><path id="path3" d="M223.896 277.129 C 217.725 283.218,212.298 288.634,211.838 289.165 C 211.377 289.695,210.569 290.505,210.043 290.965 C 207.827 292.898,191.200 309.665,191.200 309.967 C 191.200 310.348,223.652 342.882,223.842 342.691 C 223.912 342.622,216.776 335.374,207.984 326.584 C 199.193 317.795,192.000 310.355,192.000 310.052 C 192.000 309.536,198.015 303.467,224.543 277.221 L 235.236 266.641 273.017 304.421 C 293.796 325.199,310.798 342.334,310.799 342.498 C 310.799 342.662,291.315 342.843,267.500 342.900 L 224.200 343.004 267.676 343.102 C 291.588 343.156,311.247 343.048,311.361 342.862 C 311.476 342.677,294.368 325.319,273.344 304.291 L 235.117 266.057 223.896 277.129 " stroke="none" fill="#4280b3" fill-rule="evenodd"></path><path id="path4" d="M309.059 190.210 C 309.250 190.708,309.414 190.729,309.947 190.323 C 310.306 190.050,310.675 189.775,310.767 189.713 C 310.858 189.651,310.459 189.600,309.879 189.600 C 309.099 189.600,308.886 189.758,309.059 190.210 M190.577 222.967 C 190.150 223.279,189.922 223.656,190.070 223.804 C 190.507 224.240,192.000 223.597,192.000 222.973 C 192.000 222.248,191.563 222.246,190.577 222.967 M174.700 238.757 C 174.315 239.148,174.121 239.587,174.268 239.734 C 174.564 240.031,176.000 238.873,176.000 238.338 C 176.000 237.809,175.465 237.982,174.700 238.757 M158.700 254.757 C 157.846 255.623,157.812 256.000,158.586 256.000 C 159.098 256.000,160.000 254.868,160.000 254.226 C 160.000 253.802,159.401 254.046,158.700 254.757 M236.700 263.412 C 235.900 264.484,235.832 264.800,236.400 264.800 C 236.620 264.800,236.800 264.545,236.800 264.233 C 236.800 263.922,237.007 263.598,237.260 263.513 C 237.513 263.429,237.648 263.161,237.560 262.917 C 237.472 262.673,237.085 262.896,236.700 263.412 M148.500 264.966 C 147.362 266.056,147.363 266.062,148.800 267.600 C 150.070 268.959,150.403 268.523,149.541 266.631 C 149.192 265.865,149.197 265.486,149.561 265.047 C 150.346 264.101,149.473 264.033,148.500 264.966 M235.614 266.279 C 235.631 266.657,244.395 275.514,244.398 275.157 C 244.399 275.023,242.420 272.898,240.000 270.436 C 237.580 267.973,235.606 266.103,235.614 266.279 M248.997 279.907 C 252.027 283.027,252.400 283.375,252.400 283.074 C 252.400 282.855,247.831 278.238,246.792 277.407 C 246.246 276.970,247.239 278.095,248.997 279.907 M256.991 287.915 C 259.997 291.010,260.400 291.384,260.400 291.074 C 260.400 290.850,255.818 286.227,254.792 285.415 C 254.246 284.984,255.236 286.109,256.991 287.915 M210.200 290.351 C 209.156 291.527,208.955 291.891,209.623 291.399 C 210.671 290.627,212.189 288.823,211.939 288.647 C 211.863 288.593,211.080 289.360,210.200 290.351 M264.997 295.907 C 268.027 299.027,268.400 299.375,268.400 299.074 C 268.400 298.855,263.831 294.238,262.792 293.407 C 262.246 292.970,263.239 294.095,264.997 295.907 M200.175 300.500 L 199.000 301.800 200.300 300.625 C 201.512 299.530,201.784 299.200,201.475 299.200 C 201.406 299.200,200.821 299.785,200.175 300.500 M272.991 303.915 C 275.997 307.010,276.400 307.384,276.400 307.074 C 276.400 306.850,271.818 302.227,270.792 301.415 C 270.246 300.984,271.236 302.109,272.991 303.915 M186.400 305.113 C 186.400 305.285,187.266 306.231,188.325 307.215 C 189.384 308.199,190.459 309.364,190.713 309.802 C 190.968 310.241,191.181 310.387,191.188 310.126 C 191.195 309.865,192.211 308.641,193.446 307.406 C 194.682 306.170,195.610 305.076,195.508 304.975 C 195.407 304.873,194.429 305.686,193.335 306.780 L 191.345 308.769 190.080 307.885 C 189.383 307.398,188.811 306.841,188.807 306.647 C 188.791 305.833,186.400 304.309,186.400 305.113 M280.997 311.907 C 284.027 315.027,284.400 315.375,284.400 315.074 C 284.400 314.855,279.831 310.238,278.792 309.407 C 278.246 308.970,279.239 310.095,280.997 311.907 M288.991 319.915 C 291.997 323.010,292.400 323.384,292.400 323.074 C 292.400 322.850,287.818 318.227,286.792 317.415 C 286.246 316.984,287.236 318.109,288.991 319.915 M296.997 327.907 C 300.027 331.027,300.400 331.375,300.400 331.074 C 300.400 330.855,295.831 326.238,294.792 325.407 C 294.246 324.970,295.239 326.095,296.997 327.907 M304.991 335.915 C 308.004 339.018,308.400 339.384,308.400 339.070 C 308.400 338.859,303.832 334.267,302.774 333.415 C 302.238 332.984,303.236 334.109,304.991 335.915 M310.790 341.790 C 312.181 343.270,313.897 343.219,267.136 343.105 C 243.233 343.047,223.760 343.135,223.862 343.300 C 223.964 343.465,243.837 343.600,268.024 343.600 C 315.842 343.600,313.628 343.705,311.139 341.547 C 309.907 340.478,309.696 340.625,310.790 341.790 " stroke="none" fill="#69a1cd" fill-rule="evenodd"></path><path id="path5" d="M190.914 223.830 C 190.207 224.138,186.579 227.498,182.851 231.295 C 179.123 235.093,175.615 238.650,175.055 239.200 C 164.294 249.775,160.268 253.895,159.790 254.820 C 159.470 255.438,158.849 256.057,158.409 256.197 C 157.242 256.567,149.206 264.818,149.201 265.651 C 149.195 266.810,150.896 269.150,153.868 272.070 C 155.811 273.979,157.685 275.869,158.034 276.270 C 158.382 276.672,159.462 277.741,160.434 278.647 C 161.405 279.553,163.212 281.353,164.450 282.647 C 165.687 283.941,167.307 285.559,168.050 286.243 C 168.792 286.927,170.605 288.742,172.078 290.276 C 173.552 291.811,175.442 293.685,176.278 294.442 C 177.115 295.199,178.880 296.976,180.200 298.391 C 181.520 299.807,183.680 301.927,185.000 303.103 C 186.320 304.279,188.278 306.083,189.351 307.112 L 191.302 308.982 192.351 307.770 C 192.928 307.103,194.210 305.906,195.200 305.110 C 196.190 304.314,200.240 300.388,204.200 296.386 C 208.160 292.384,211.838 288.725,212.374 288.255 C 213.467 287.295,213.553 287.212,226.090 274.907 L 235.151 266.013 234.276 265.011 C 232.672 263.175,192.802 223.401,192.499 223.334 C 192.334 223.298,191.622 223.521,190.914 223.830 " stroke="none" fill="#28b6f6" fill-rule="evenodd"></path><path id="path6" d="M223.776 57.368 C 223.349 57.680,223.000 58.175,223.000 58.468 C 223.000 58.760,222.807 59.000,222.571 59.000 C 221.792 59.000,218.711 62.301,219.278 62.528 C 219.581 62.649,219.465 62.750,219.000 62.769 C 218.111 62.805,210.648 70.114,211.070 70.537 C 211.215 70.681,211.071 70.800,210.750 70.800 C 210.111 70.800,206.689 74.107,206.758 74.658 C 206.781 74.846,206.652 75.000,206.471 75.000 C 205.760 75.000,202.756 78.319,203.278 78.528 C 203.581 78.649,203.465 78.750,203.000 78.769 C 202.111 78.805,194.648 86.114,195.070 86.537 C 195.215 86.681,195.071 86.800,194.750 86.800 C 194.111 86.800,190.689 90.107,190.758 90.658 C 190.781 90.846,190.652 91.000,190.471 91.000 C 189.760 91.000,186.756 94.319,187.278 94.528 C 187.581 94.649,187.465 94.750,187.000 94.769 C 186.111 94.805,178.648 102.114,179.070 102.537 C 179.215 102.681,179.071 102.800,178.750 102.800 C 178.111 102.800,174.689 106.107,174.758 106.658 C 174.781 106.846,174.652 107.000,174.471 107.000 C 173.760 107.000,170.756 110.319,171.278 110.528 C 171.581 110.649,171.465 110.750,171.000 110.769 C 170.111 110.805,162.648 118.114,163.070 118.537 C 163.215 118.681,163.071 118.800,162.750 118.800 C 162.111 118.800,158.689 122.107,158.758 122.658 C 158.781 122.846,158.652 123.000,158.471 123.000 C 157.760 123.000,154.756 126.319,155.278 126.528 C 155.581 126.649,155.465 126.750,155.000 126.769 C 154.111 126.805,146.648 134.114,147.070 134.537 C 147.215 134.681,147.071 134.800,146.750 134.800 C 146.111 134.800,142.689 138.107,142.758 138.658 C 142.781 138.846,142.652 139.000,142.471 139.000 C 141.760 139.000,138.756 142.319,139.278 142.528 C 139.581 142.649,139.465 142.750,139.000 142.769 C 138.111 142.805,130.648 150.114,131.070 150.537 C 131.215 150.681,131.071 150.800,130.750 150.800 C 130.111 150.800,126.689 154.107,126.758 154.658 C 126.781 154.846,126.652 155.000,126.471 155.000 C 125.760 155.000,122.756 158.319,123.278 158.528 C 123.581 158.649,123.465 158.750,123.000 158.769 C 122.111 158.805,114.648 166.114,115.070 166.537 C 115.215 166.681,115.071 166.800,114.750 166.800 C 114.111 166.800,110.689 170.107,110.758 170.658 C 110.781 170.846,110.652 171.000,110.471 171.000 C 109.760 171.000,106.756 174.319,107.278 174.528 C 107.581 174.649,107.465 174.750,107.000 174.769 C 106.111 174.805,98.648 182.114,99.070 182.537 C 99.215 182.681,99.071 182.800,98.750 182.800 C 98.111 182.800,94.689 186.107,94.758 186.658 C 94.781 186.846,94.652 187.000,94.471 187.000 C 93.760 187.000,90.756 190.319,91.278 190.528 C 91.579 190.648,91.457 190.750,90.991 190.768 C 89.763 190.816,81.734 199.094,82.333 199.693 C 82.904 200.264,82.953 200.942,82.400 200.600 C 81.304 199.922,82.435 201.186,87.034 205.779 C 89.802 208.543,92.237 210.701,92.444 210.573 C 92.651 210.445,92.770 210.526,92.710 210.753 C 92.552 211.345,101.973 220.864,102.435 220.579 C 102.647 220.448,102.770 220.533,102.710 220.769 C 102.514 221.533,113.999 232.771,114.737 232.536 C 115.225 232.380,115.264 232.422,114.884 232.696 C 114.330 233.094,121.637 240.694,122.392 240.505 C 122.600 240.452,122.656 240.709,122.516 241.074 C 122.321 241.582,122.424 241.676,122.951 241.474 C 123.331 241.328,123.546 241.363,123.430 241.551 C 123.314 241.739,123.560 242.201,123.976 242.578 C 124.963 243.472,125.445 243.197,129.143 239.635 C 130.761 238.076,132.246 236.800,132.443 236.800 C 132.639 236.800,132.800 236.619,132.800 236.398 C 132.800 235.876,139.880 228.800,140.402 228.800 C 140.621 228.800,140.800 228.619,140.800 228.398 C 140.800 227.876,147.880 220.800,148.402 220.800 C 148.621 220.800,148.800 220.619,148.800 220.398 C 148.800 219.876,155.880 212.800,156.402 212.800 C 156.621 212.800,156.800 212.619,156.800 212.398 C 156.800 211.876,163.880 204.800,164.402 204.800 C 164.621 204.800,164.800 204.619,164.800 204.398 C 164.800 203.876,171.880 196.800,172.402 196.800 C 172.621 196.800,172.800 196.619,172.800 196.398 C 172.800 195.876,179.880 188.800,180.402 188.800 C 180.621 188.800,180.800 188.619,180.800 188.398 C 180.800 187.876,187.880 180.800,188.402 180.800 C 188.621 180.800,188.800 180.619,188.800 180.398 C 188.800 179.876,195.880 172.800,196.402 172.800 C 196.621 172.800,196.800 172.619,196.800 172.398 C 196.800 171.876,203.880 164.800,204.402 164.800 C 204.621 164.800,204.800 164.619,204.800 164.398 C 204.800 163.876,211.880 156.800,212.402 156.800 C 212.621 156.800,212.800 156.619,212.800 156.398 C 212.800 155.876,219.880 148.800,220.402 148.800 C 220.621 148.800,220.800 148.619,220.800 148.398 C 220.800 147.876,227.880 140.800,228.402 140.800 C 228.621 140.800,228.800 140.619,228.800 140.398 C 228.800 139.876,235.880 132.800,236.402 132.800 C 236.621 132.800,236.800 132.619,236.800 132.398 C 236.800 131.876,243.880 124.800,244.402 124.800 C 244.621 124.800,244.800 124.619,244.800 124.398 C 244.800 123.876,251.880 116.800,252.402 116.800 C 252.621 116.800,252.800 116.619,252.800 116.398 C 252.800 115.876,259.880 108.800,260.402 108.800 C 260.621 108.800,260.800 108.619,260.800 108.398 C 260.800 107.876,267.880 100.800,268.402 100.800 C 268.621 100.800,268.800 100.619,268.800 100.398 C 268.800 99.876,275.880 92.800,276.402 92.800 C 276.621 92.800,276.800 92.619,276.800 92.398 C 276.800 91.876,283.880 84.800,284.402 84.800 C 284.621 84.800,284.800 84.619,284.800 84.398 C 284.800 83.876,291.880 76.800,292.402 76.800 C 292.621 76.800,292.800 76.619,292.800 76.398 C 292.800 75.876,299.880 68.800,300.402 68.800 C 300.621 68.800,300.800 68.631,300.800 68.425 C 300.800 68.136,306.586 61.866,308.286 60.313 C 310.698 58.109,311.203 57.528,310.996 57.194 C 310.567 56.499,224.731 56.670,223.776 57.368 M224.052 189.737 C 223.807 190.032,223.740 190.437,223.903 190.637 C 224.067 190.837,224.031 190.861,223.825 190.692 C 223.378 190.324,220.338 193.177,220.646 193.675 C 220.764 193.865,220.671 193.970,220.441 193.910 C 220.211 193.849,213.493 200.310,205.512 208.267 C 197.530 216.223,191.136 222.647,191.303 222.541 C 191.470 222.435,191.858 222.585,192.167 222.874 C 195.512 226.010,234.000 264.651,234.000 264.873 C 234.000 265.530,235.689 266.103,236.024 265.560 C 236.202 265.273,236.257 264.893,236.148 264.715 C 236.038 264.538,236.320 263.920,236.774 263.342 C 237.344 262.617,237.600 262.486,237.600 262.919 C 237.600 263.264,240.400 260.767,243.823 257.371 C 247.602 253.621,249.933 251.016,249.761 250.736 C 249.587 250.455,249.653 250.385,249.930 250.557 C 250.536 250.931,266.129 235.332,265.755 234.726 C 265.587 234.455,265.656 234.387,265.930 234.557 C 266.536 234.931,282.129 219.332,281.755 218.726 C 281.587 218.455,281.656 218.387,281.930 218.557 C 282.536 218.931,298.129 203.332,297.755 202.726 C 297.585 202.452,297.656 202.388,297.937 202.561 C 298.428 202.864,310.400 191.127,310.400 190.342 C 310.400 190.031,310.238 190.037,309.847 190.361 C 309.421 190.714,309.241 190.685,309.069 190.235 C 308.936 189.890,309.122 189.577,309.522 189.471 C 309.895 189.373,290.917 189.272,267.349 189.246 C 231.947 189.208,224.421 189.293,224.052 189.737 M182.637 230.637 C 178.765 234.538,175.682 237.815,175.786 237.919 C 175.890 238.023,179.145 234.918,183.020 231.020 C 186.894 227.121,189.977 223.844,189.871 223.737 C 189.764 223.631,186.509 226.735,182.637 230.637 M166.624 246.660 C 162.754 250.543,159.673 253.806,159.778 253.912 C 159.884 254.017,163.220 250.840,167.192 246.851 C 171.165 242.863,174.246 239.600,174.039 239.600 C 173.831 239.600,170.495 242.777,166.624 246.660 M153.600 259.675 C 151.403 261.944,149.604 263.954,149.603 264.142 C 149.601 264.330,151.376 262.688,153.547 260.493 C 155.717 258.298,157.733 256.422,158.027 256.324 C 158.433 256.189,158.445 256.075,158.077 255.848 C 157.769 255.657,156.150 257.041,153.600 259.675 M150.000 268.639 C 150.000 269.223,157.562 276.785,157.785 276.425 C 157.940 276.174,154.874 272.956,150.173 268.433 C 150.078 268.342,150.000 268.434,150.000 268.639 M158.681 277.759 C 159.077 278.286,159.490 278.665,159.600 278.601 C 159.710 278.537,160.032 278.735,160.316 279.042 C 160.599 279.349,160.755 279.600,160.662 279.600 C 160.568 279.600,161.945 281.040,163.722 282.800 C 165.498 284.560,167.141 286.000,167.372 286.000 C 167.603 286.000,167.344 285.568,166.796 285.041 C 166.248 284.513,164.191 282.443,162.224 280.441 C 158.815 276.969,157.139 275.701,158.681 277.759 M168.000 286.800 C 168.000 287.020,168.210 287.200,168.467 287.200 C 168.723 287.200,168.826 287.308,168.694 287.439 C 168.428 287.705,174.777 294.000,175.311 294.000 C 175.496 294.000,175.519 294.208,175.362 294.462 C 175.205 294.716,175.239 294.825,175.438 294.704 C 175.637 294.583,176.032 294.735,176.316 295.042 C 176.599 295.349,176.727 295.600,176.600 295.600 C 176.473 295.600,176.601 295.851,176.884 296.158 C 177.168 296.465,177.535 296.634,177.700 296.534 C 177.865 296.435,178.000 296.515,178.000 296.712 C 178.000 297.202,182.829 302.000,183.322 302.000 C 183.539 302.000,183.286 301.584,182.758 301.076 C 182.231 300.568,180.614 298.903,179.164 297.376 C 177.714 295.849,175.914 294.041,175.164 293.357 C 174.414 292.673,172.565 290.828,171.057 289.257 C 168.221 286.304,168.000 286.126,168.000 286.800 M184.000 302.690 C 184.000 303.307,186.013 305.320,186.322 305.011 C 186.452 304.881,185.983 304.199,185.279 303.495 C 184.576 302.791,184.000 302.429,184.000 302.690 " stroke="none" fill="#53c5f9" fill-rule="evenodd"></path><path id="path7" d="M152.783 127.625 C 98.585 181.818,81.181 199.446,81.275 200.055 C 81.422 200.999,124.290 244.000,125.086 244.000 C 125.705 244.000,311.711 58.130,312.096 57.127 C 312.526 56.005,312.330 56.000,267.774 56.000 L 224.414 56.000 152.783 127.625 M310.989 57.182 C 311.119 57.392,308.879 59.908,306.012 62.773 C 303.146 65.638,300.800 68.166,300.800 68.391 C 300.800 68.616,300.621 68.800,300.402 68.800 C 299.880 68.800,292.800 75.876,292.800 76.398 C 292.800 76.619,292.621 76.800,292.402 76.800 C 291.880 76.800,284.800 83.876,284.800 84.398 C 284.800 84.619,284.621 84.800,284.402 84.800 C 283.880 84.800,276.800 91.876,276.800 92.398 C 276.800 92.619,276.621 92.800,276.402 92.800 C 275.880 92.800,268.800 99.876,268.800 100.398 C 268.800 100.619,268.621 100.800,268.402 100.800 C 267.880 100.800,260.800 107.876,260.800 108.398 C 260.800 108.619,260.621 108.800,260.402 108.800 C 259.880 108.800,252.800 115.876,252.800 116.398 C 252.800 116.619,252.621 116.800,252.402 116.800 C 251.880 116.800,244.800 123.876,244.800 124.398 C 244.800 124.619,244.621 124.800,244.402 124.800 C 243.880 124.800,236.800 131.876,236.800 132.398 C 236.800 132.619,236.621 132.800,236.402 132.800 C 235.880 132.800,228.800 139.876,228.800 140.398 C 228.800 140.619,228.621 140.800,228.402 140.800 C 227.880 140.800,220.800 147.876,220.800 148.398 C 220.800 148.619,220.621 148.800,220.402 148.800 C 219.880 148.800,212.800 155.876,212.800 156.398 C 212.800 156.619,212.621 156.800,212.402 156.800 C 211.880 156.800,204.800 163.876,204.800 164.398 C 204.800 164.619,204.621 164.800,204.402 164.800 C 203.880 164.800,196.800 171.876,196.800 172.398 C 196.800 172.619,196.621 172.800,196.402 172.800 C 195.880 172.800,188.800 179.876,188.800 180.398 C 188.800 180.619,188.621 180.800,188.402 180.800 C 187.880 180.800,180.800 187.876,180.800 188.398 C 180.800 188.619,180.621 188.800,180.402 188.800 C 179.880 188.800,172.800 195.876,172.800 196.398 C 172.800 196.619,172.621 196.800,172.402 196.800 C 171.880 196.800,164.800 203.876,164.800 204.398 C 164.800 204.619,164.621 204.800,164.402 204.800 C 163.880 204.800,156.800 211.876,156.800 212.398 C 156.800 212.619,156.621 212.800,156.402 212.800 C 155.880 212.800,148.800 219.876,148.800 220.398 C 148.800 220.619,148.621 220.800,148.402 220.800 C 147.880 220.800,140.800 227.876,140.800 228.398 C 140.800 228.619,140.621 228.800,140.402 228.800 C 139.880 228.800,132.800 235.876,132.800 236.398 C 132.800 236.619,132.639 236.800,132.443 236.800 C 132.246 236.800,130.761 238.076,129.143 239.635 C 125.355 243.284,124.964 243.493,123.862 242.458 C 119.558 238.411,82.279 200.920,81.952 200.310 C 81.568 199.593,88.862 192.173,152.878 128.156 L 224.232 56.800 267.492 56.800 C 294.526 56.800,310.841 56.943,310.989 57.182 M185.641 227.061 C 163.759 248.841,147.200 265.625,147.200 266.025 C 147.200 266.411,148.370 267.951,149.800 269.445 C 151.230 270.940,152.400 271.989,152.400 271.775 C 152.400 271.562,151.320 270.328,150.000 269.033 C 148.680 267.738,147.600 266.463,147.600 266.199 C 147.600 265.756,166.146 247.163,207.793 205.856 L 224.586 189.200 267.060 189.200 C 290.421 189.200,309.816 189.308,310.160 189.440 C 311.297 189.876,310.339 190.876,272.961 228.248 C 245.843 255.363,236.001 265.444,236.002 266.102 C 236.005 266.980,236.016 266.978,236.527 265.999 C 236.814 265.449,253.913 248.142,274.525 227.538 C 295.136 206.935,312.000 189.790,312.000 189.439 C 312.000 188.858,308.035 188.800,268.041 188.800 L 224.082 188.800 185.641 227.061 M242.263 272.800 C 243.361 274.032,243.878 274.374,243.349 273.517 C 242.783 272.602,241.821 271.600,241.508 271.600 C 241.335 271.600,241.675 272.140,242.263 272.800 M152.800 272.208 C 152.800 272.386,160.360 280.082,169.600 289.309 C 178.840 298.536,186.400 305.958,186.400 305.801 C 186.400 305.644,178.840 297.949,169.600 288.701 C 160.360 279.452,152.800 272.030,152.800 272.208 M246.000 276.330 C 246.000 276.516,246.540 277.149,247.200 277.737 C 247.860 278.325,248.400 278.689,248.400 278.546 C 248.400 278.404,247.860 277.771,247.200 277.140 C 246.540 276.509,246.000 276.145,246.000 276.330 M250.000 280.277 C 250.000 280.496,250.360 281.002,250.800 281.400 C 251.240 281.798,251.600 282.034,251.600 281.923 C 251.600 281.813,251.240 281.307,250.800 280.800 C 250.360 280.293,250.000 280.057,250.000 280.277 M254.000 284.330 C 254.000 284.516,254.540 285.149,255.200 285.737 C 255.860 286.325,256.400 286.689,256.400 286.546 C 256.400 286.404,255.860 285.771,255.200 285.140 C 254.540 284.509,254.000 284.145,254.000 284.330 M258.263 288.800 C 259.361 290.032,259.878 290.374,259.349 289.517 C 258.783 288.602,257.821 287.600,257.508 287.600 C 257.335 287.600,257.675 288.140,258.263 288.800 M262.000 292.330 C 262.000 292.516,262.540 293.149,263.200 293.737 C 263.860 294.325,264.400 294.689,264.400 294.546 C 264.400 294.404,263.860 293.771,263.200 293.140 C 262.540 292.509,262.000 292.145,262.000 292.330 M266.000 296.277 C 266.000 296.496,266.360 297.002,266.800 297.400 C 267.240 297.798,267.600 298.034,267.600 297.923 C 267.600 297.813,267.240 297.307,266.800 296.800 C 266.360 296.293,266.000 296.057,266.000 296.277 M270.000 300.330 C 270.000 300.516,270.540 301.149,271.200 301.737 C 271.860 302.325,272.400 302.689,272.400 302.546 C 272.400 302.404,271.860 301.771,271.200 301.140 C 270.540 300.509,270.000 300.145,270.000 300.330 M274.263 304.800 C 275.361 306.032,275.878 306.374,275.349 305.517 C 274.783 304.602,273.821 303.600,273.508 303.600 C 273.335 303.600,273.675 304.140,274.263 304.800 M186.800 306.141 C 186.800 306.579,190.347 310.186,190.564 309.969 C 190.661 309.872,189.854 308.901,188.770 307.810 C 187.687 306.720,186.800 305.969,186.800 306.141 M278.000 308.330 C 278.000 308.516,278.540 309.149,279.200 309.737 C 279.860 310.325,280.400 310.689,280.400 310.546 C 280.400 310.404,279.860 309.771,279.200 309.140 C 278.540 308.509,278.000 308.145,278.000 308.330 M282.000 312.277 C 282.000 312.496,282.360 313.002,282.800 313.400 C 283.240 313.798,283.600 314.034,283.600 313.923 C 283.600 313.813,283.240 313.307,282.800 312.800 C 282.360 312.293,282.000 312.057,282.000 312.277 M286.000 316.330 C 286.000 316.516,286.540 317.149,287.200 317.737 C 287.860 318.325,288.400 318.689,288.400 318.546 C 288.400 318.404,287.860 317.771,287.200 317.140 C 286.540 316.509,286.000 316.145,286.000 316.330 M290.263 320.800 C 291.361 322.032,291.878 322.374,291.349 321.517 C 290.783 320.602,289.821 319.600,289.508 319.600 C 289.335 319.600,289.675 320.140,290.263 320.800 M200.800 320.800 C 201.307 321.240,201.813 321.600,201.923 321.600 C 202.034 321.600,201.798 321.240,201.400 320.800 C 201.002 320.360,200.496 320.000,200.277 320.000 C 200.057 320.000,200.293 320.360,200.800 320.800 M294.000 324.330 C 294.000 324.516,294.540 325.149,295.200 325.737 C 295.860 326.325,296.400 326.689,296.400 326.546 C 296.400 326.404,295.860 325.771,295.200 325.140 C 294.540 324.509,294.000 324.145,294.000 324.330 M206.800 326.800 C 207.307 327.240,207.813 327.600,207.923 327.600 C 208.034 327.600,207.798 327.240,207.400 326.800 C 207.002 326.360,206.496 326.000,206.277 326.000 C 206.057 326.000,206.293 326.360,206.800 326.800 M298.000 328.277 C 298.000 328.496,298.360 329.002,298.800 329.400 C 299.240 329.798,299.600 330.034,299.600 329.923 C 299.600 329.813,299.240 329.307,298.800 328.800 C 298.360 328.293,298.000 328.057,298.000 328.277 M212.800 332.800 C 213.307 333.240,213.813 333.600,213.923 333.600 C 214.034 333.600,213.798 333.240,213.400 332.800 C 213.002 332.360,212.496 332.000,212.277 332.000 C 212.057 332.000,212.293 332.360,212.800 332.800 M302.000 332.330 C 302.000 332.516,302.540 333.149,303.200 333.737 C 303.860 334.325,304.400 334.689,304.400 334.546 C 304.400 334.404,303.860 333.771,303.200 333.140 C 302.540 332.509,302.000 332.145,302.000 332.330 M214.800 334.800 C 215.307 335.240,215.813 335.600,215.923 335.600 C 216.034 335.600,215.798 335.240,215.400 334.800 C 215.002 334.360,214.496 334.000,214.277 334.000 C 214.057 334.000,214.293 334.360,214.800 334.800 M304.813 335.044 C 304.827 335.448,307.600 338.298,307.600 337.909 C 307.600 337.770,306.970 336.989,306.200 336.173 C 305.430 335.356,304.806 334.848,304.813 335.044 M216.800 336.800 C 217.307 337.240,217.813 337.600,217.923 337.600 C 218.034 337.600,217.798 337.240,217.400 336.800 C 217.002 336.360,216.496 336.000,216.277 336.000 C 216.057 336.000,216.293 336.360,216.800 336.800 M311.500 341.865 C 311.775 341.976,312.000 342.412,312.000 342.833 C 312.000 344.066,224.516 344.033,223.400 342.800 C 223.002 342.360,222.496 342.000,222.276 342.000 C 222.056 342.000,222.399 342.450,223.038 343.000 L 224.200 343.999 268.500 344.000 C 292.865 344.000,312.800 343.922,312.800 343.826 C 312.800 343.099,311.922 341.606,311.510 341.632 C 311.109 341.656,311.107 341.706,311.500 341.865 " stroke="none" fill="#9bd7ec" fill-rule="evenodd"></path><path id="path8" d="M152.364 127.166 C 90.629 188.910,80.802 198.896,80.813 199.871 C 80.827 201.097,81.616 202.400,82.344 202.400 C 82.595 202.400,82.800 202.543,82.800 202.718 C 82.800 203.240,85.899 206.400,86.412 206.400 C 86.672 206.400,86.796 206.635,86.686 206.921 C 86.571 207.220,86.951 207.649,87.578 207.926 C 88.178 208.192,88.910 208.857,89.203 209.405 C 89.495 209.952,89.975 210.400,90.268 210.400 C 90.560 210.400,90.800 210.640,90.800 210.932 C 90.800 211.225,91.230 211.695,91.756 211.976 C 92.282 212.258,92.942 212.918,93.224 213.444 C 93.505 213.970,93.969 214.400,94.255 214.400 C 94.553 214.400,94.677 214.656,94.545 215.000 C 94.407 215.358,94.541 215.600,94.877 215.600 C 95.405 215.600,98.800 218.580,98.800 219.043 C 98.800 219.312,99.875 220.400,100.141 220.400 C 100.459 220.400,102.800 222.832,102.800 223.163 C 102.800 223.329,103.230 223.695,103.756 223.976 C 104.282 224.258,104.942 224.918,105.224 225.444 C 105.505 225.970,105.975 226.400,106.268 226.400 C 106.560 226.400,106.800 226.640,106.800 226.932 C 106.800 227.225,107.230 227.695,107.756 227.976 C 108.282 228.258,108.942 228.918,109.224 229.444 C 109.505 229.970,109.969 230.400,110.255 230.400 C 110.553 230.400,110.677 230.656,110.545 231.000 C 110.407 231.358,110.541 231.600,110.877 231.600 C 111.405 231.600,114.800 234.580,114.800 235.043 C 114.800 235.312,115.875 236.400,116.141 236.400 C 116.334 236.400,118.800 238.770,118.800 238.955 C 118.800 239.007,120.072 240.351,121.626 241.943 C 124.948 245.345,125.480 245.385,128.128 242.425 C 128.607 241.889,170.551 199.884,221.336 149.081 C 290.445 79.947,313.557 56.597,313.216 56.256 C 312.882 55.921,300.931 55.772,268.344 55.695 L 223.928 55.590 152.364 127.166 M311.742 56.233 C 312.113 56.375,312.251 56.723,312.096 57.127 C 311.711 58.130,125.705 244.000,125.086 244.000 C 124.290 244.000,81.422 200.999,81.275 200.055 C 81.181 199.446,98.585 181.818,152.783 127.625 L 224.414 56.000 267.774 56.000 C 291.622 56.000,311.408 56.105,311.742 56.233 M207.988 203.898 C 199.240 212.644,191.300 220.525,190.342 221.411 C 189.384 222.298,186.410 225.268,183.734 228.011 C 181.058 230.755,177.188 234.633,175.134 236.630 C 173.080 238.626,169.479 242.226,167.130 244.630 C 164.782 247.033,161.182 250.648,159.130 252.661 C 148.451 263.144,146.419 265.386,146.683 266.397 C 146.827 266.945,155.508 275.932,166.668 287.086 C 177.521 297.933,186.400 306.985,186.400 307.203 C 186.400 307.422,186.580 307.600,186.800 307.600 C 187.021 307.600,187.925 308.346,188.810 309.258 C 189.694 310.169,190.509 310.825,190.619 310.714 C 190.730 310.604,181.006 300.699,169.010 288.703 C 155.002 274.695,147.200 266.613,147.200 266.108 C 147.200 265.598,160.687 251.898,185.641 227.061 L 224.082 188.800 268.041 188.800 C 307.990 188.800,312.000 188.858,312.000 189.437 C 312.000 189.788,294.990 207.080,274.200 227.864 C 253.410 248.649,236.400 265.832,236.400 266.049 C 236.400 266.266,236.946 267.019,237.614 267.722 C 238.282 268.425,238.712 268.685,238.571 268.300 C 238.430 267.915,238.134 267.600,237.914 267.600 C 237.694 267.600,237.610 267.352,237.726 267.049 C 237.842 266.746,237.764 266.324,237.552 266.112 C 237.305 265.865,238.111 264.807,239.796 263.164 C 241.242 261.754,244.085 258.930,246.113 256.889 C 248.141 254.848,251.125 251.878,252.744 250.289 C 254.364 248.700,257.964 245.093,260.744 242.274 C 263.525 239.455,267.125 235.855,268.744 234.274 C 270.364 232.693,273.964 229.093,276.744 226.274 C 279.525 223.455,283.125 219.855,284.744 218.274 C 286.364 216.693,289.964 213.089,292.744 210.264 C 295.525 207.439,298.006 204.919,298.259 204.664 C 298.511 204.409,301.819 201.143,305.610 197.407 C 311.362 191.738,312.510 190.415,312.551 189.407 L 312.600 188.200 268.246 188.098 L 223.892 187.996 207.988 203.898 M239.200 268.916 C 239.200 269.075,240.460 270.488,242.000 272.056 C 243.540 273.623,244.800 274.781,244.800 274.628 C 244.800 274.475,243.540 273.062,242.000 271.488 C 240.460 269.914,239.200 268.757,239.200 268.916 M249.173 279.200 C 250.682 280.740,252.046 282.000,252.202 282.000 C 252.359 282.000,251.265 280.740,249.772 279.200 C 248.279 277.660,246.915 276.400,246.742 276.400 C 246.569 276.400,247.663 277.660,249.173 279.200 M255.204 284.857 C 255.202 284.999,256.471 286.437,258.024 288.053 C 259.578 289.670,260.740 290.724,260.606 290.396 C 260.330 289.715,255.209 284.465,255.204 284.857 M265.173 295.200 C 266.682 296.740,268.046 298.000,268.202 298.000 C 268.359 298.000,267.265 296.740,265.772 295.200 C 264.279 293.660,262.915 292.400,262.742 292.400 C 262.569 292.400,263.663 293.660,265.173 295.200 M272.100 302.067 C 273.035 302.983,274.490 304.468,275.334 305.367 C 276.178 306.265,276.731 306.730,276.562 306.400 C 276.126 305.546,271.123 300.400,270.728 300.400 C 270.548 300.400,271.165 301.150,272.100 302.067 M281.173 311.200 C 282.682 312.740,284.046 314.000,284.202 314.000 C 284.359 314.000,283.265 312.740,281.772 311.200 C 280.279 309.660,278.915 308.400,278.742 308.400 C 278.569 308.400,279.663 309.660,281.173 311.200 M195.695 316.145 C 197.953 318.425,199.880 320.220,199.978 320.134 C 200.197 319.941,192.319 312.023,191.895 312.010 C 191.727 312.004,193.437 313.865,195.695 316.145 M288.100 318.067 C 289.035 318.983,290.490 320.468,291.334 321.367 C 292.178 322.265,292.731 322.730,292.562 322.400 C 292.126 321.546,287.123 316.400,286.728 316.400 C 286.548 316.400,287.165 317.150,288.100 318.067 M200.400 320.953 C 200.400 321.309,200.584 321.600,200.810 321.600 C 201.035 321.600,202.295 322.699,203.610 324.043 C 204.924 325.386,206.000 326.347,206.000 326.179 C 206.000 326.011,204.740 324.621,203.200 323.090 C 201.502 321.402,200.400 320.561,200.400 320.953 M297.173 327.200 C 298.682 328.740,300.046 330.000,300.202 330.000 C 300.359 330.000,299.265 328.740,297.772 327.200 C 296.279 325.660,294.915 324.400,294.742 324.400 C 294.569 324.400,295.663 325.660,297.173 327.200 M206.400 326.613 C 206.400 326.761,207.660 328.118,209.200 329.627 C 210.740 331.137,212.000 332.236,212.000 332.070 C 212.000 331.904,210.740 330.548,209.200 329.056 C 207.660 327.565,206.400 326.465,206.400 326.613 M212.400 332.715 C 212.400 332.884,212.760 333.330,213.200 333.707 C 213.640 334.084,214.000 334.254,214.000 334.085 C 214.000 333.916,213.640 333.470,213.200 333.093 C 212.760 332.716,212.400 332.546,212.400 332.715 M305.200 335.200 C 306.719 336.740,308.080 338.000,308.224 338.000 C 308.369 338.000,307.265 336.740,305.772 335.200 C 304.279 333.660,302.918 332.400,302.748 332.400 C 302.578 332.400,303.681 333.660,305.200 335.200 M214.400 334.715 C 214.400 334.884,214.760 335.330,215.200 335.707 C 215.640 336.084,216.000 336.254,216.000 336.085 C 216.000 335.916,215.640 335.470,215.200 335.093 C 214.760 334.716,214.400 334.546,214.400 334.715 M216.400 336.953 C 216.400 337.309,216.584 337.600,216.810 337.600 C 217.035 337.600,218.295 338.699,219.610 340.043 C 220.924 341.386,222.000 342.347,222.000 342.179 C 222.000 342.011,220.740 340.621,219.200 339.090 C 217.502 337.402,216.400 336.561,216.400 336.953 M310.286 340.300 C 311.389 341.345,312.418 342.605,312.572 343.100 L 312.854 344.000 268.502 344.000 C 224.421 344.000,224.146 343.995,223.275 343.184 C 222.712 342.660,222.400 342.554,222.400 342.887 C 222.400 344.378,223.328 344.407,268.828 344.302 C 312.795 344.200,313.001 344.196,313.116 343.392 C 313.224 342.638,309.377 338.400,308.584 338.400 C 308.417 338.400,309.183 339.255,310.286 340.300 " stroke="none" fill="#beeefc" fill-rule="evenodd"></path></g></svg>